<svg xmlns="http://www.w3.org/2000/svg" version="1.1" xmlns:xlink="http://www.w3.org/1999/xlink" xmlns:svgjs="http://svgjs.dev/svgjs" width="1500" height="1500" viewBox="0 0 1500 1500"><rect width="1500" height="1500" fill="#ffffff"></rect><g transform="matrix(0.6666666666666666,0,0,0.6666666666666666,249.39393939393938,567.1861510024127)"><svg viewBox="0 0 396 145" data-background-color="#ffffff" preserveAspectRatio="xMidYMid meet" height="549" width="1500" xmlns="http://www.w3.org/2000/svg" xmlns:xlink="http://www.w3.org/1999/xlink"><g id="tight-bounds" transform="matrix(1,0,0,1,0.2400000000000091,-0.07374834795037088)"><svg viewBox="0 0 395.52 145.14749669590074" height="145.14749669590074" width="395.52"><g><svg viewBox="0 0 633.7482433500559 232.57223669519908" height="145.14749669590074" width="395.52"><g><svg viewBox="0 0 395.52 232.57223669519908" height="232.57223669519908" width="395.52"><g id="textblocktransform"><svg viewBox="0 0 395.52 232.57223669519908" height="232.57223669519908" width="395.52" id="textblock"><g><svg viewBox="0 0 395.52 232.57223669519908" height="232.57223669519908" width="395.52"><g transform="matrix(1,0,0,1,0,0)"><svg width="395.52" viewBox="2.76 -38.09 65.58999999999999 38.580000000000005" height="232.57223669519908" data-palette-color="url(#56aedebb-2f75-4b2f-be7f-6d33ee93b93c)"></svg></g></svg></g></svg></g></svg></g><g transform="matrix(1,0,0,1,450.4247233500558,24.667210654899947)"><svg viewBox="0 0 183.32352 183.2378153853992" height="183.2378153853992" width="183.32352"><g><svg xmlns="http://www.w3.org/2000/svg" xmlns:xlink="http://www.w3.org/1999/xlink" version="1.1" x="0" y="0" viewBox="0.7607695154586737 0.7749999999999999 30.43923048454133 30.424999999999997" enable-background="new 0 0 32 32" xml:space="preserve" height="183.2378153853992" width="183.32352" class="icon-icon-0" data-fill-palette-color="accent" id="icon-0"></svg></g></svg></g></svg></g><defs></defs><mask id="95038443-d8fd-4479-918c-c53d7a3d6b91"><g id="SvgjsG2257"><svg viewBox="0 0 395.52 145.14749669590074" height="145.14749669590074" width="395.52"><g><svg viewBox="0 0 633.7482433500559 232.57223669519908" height="145.14749669590074" width="395.52"><g><svg viewBox="0 0 395.52 232.57223669519908" height="232.57223669519908" width="395.52"><g id="SvgjsG2256"><svg viewBox="0 0 395.52 232.57223669519908" height="232.57223669519908" width="395.52" id="SvgjsSvg2255"><g><svg viewBox="0 0 395.52 232.57223669519908" height="232.57223669519908" width="395.52"><g transform="matrix(1,0,0,1,0,0)"><svg width="395.52" viewBox="2.76 -38.09 65.58999999999999 38.580000000000005" height="232.57223669519908" data-palette-color="url(#56aedebb-2f75-4b2f-be7f-6d33ee93b93c)"><path d="M11.28 0.49L11.28 0.49Q7.5 0.49 5.13-1.42 2.76-3.32 2.76-7.18L2.76-7.18Q2.76-8.94 3.38-10.3 4-11.67 5.27-12.61 6.54-13.55 8.54-14.04 10.55-14.53 13.28-14.53L13.28-14.53 19.24-14.53 19.24-17.58Q19.24-20.78 17.8-22.2 16.36-23.63 13.45-23.63L13.45-23.63Q11.57-23.63 9.22-23.03 6.86-22.44 4.98-21.14L4.98-21.14 3.69-24.51Q5.03-25.37 6.65-25.92 8.28-26.46 10.05-26.73 11.82-27 13.57-27L13.57-27Q16.55-27 18.82-26.05 21.09-25.1 22.38-22.95 23.66-20.8 23.66-17.21L23.66-17.21 23.66 0 19.95 0 19.63-3.25Q18.58-2 17.33-1.17 16.09-0.34 14.59 0.07 13.09 0.49 11.28 0.49ZM11.96-2.66L11.96-2.66Q14.31-2.66 16.16-3.64 18.02-4.61 19.24-6.18L19.24-6.18 19.24-11.72 14.09-11.72Q11.4-11.72 9.84-11.21 8.28-10.69 7.63-9.68 6.98-8.67 6.98-7.13L6.98-7.13Q6.98-4.64 8.44-3.65 9.89-2.66 11.96-2.66ZM38.89 0.2L38.89 0.2Q36.55 0.2 34.95-0.4 33.35-1 32.53-2.67 31.71-4.35 31.71-7.57L31.71-7.57 31.71-37.6 36.13-38.09 36.13-7.62Q36.13-5.64 36.37-4.74 36.62-3.83 37.36-3.54 38.11-3.25 39.57-3.13L39.57-3.13Q39.96-3.1 40.33-3.08 40.7-3.05 41.09-3.03L41.09-3.03 40.74 0.2Q40.28 0.2 39.82 0.2 39.35 0.2 38.89 0.2ZM58.59 0.49L58.59 0.49Q55.02 0.49 52.16-1.15 49.29-2.78 47.61-5.85 45.94-8.91 45.94-13.13L45.94-13.13Q45.94-17.53 47.58-20.63 49.21-23.73 51.97-25.37 54.73-27 58.05-27L58.05-27Q61.3-27 63.59-25.56 65.89-24.12 67.12-21.46 68.35-18.8 68.35-15.14L68.35-15.14Q68.35-14.77 68.29-14.14 68.23-13.5 68.18-12.99 68.13-12.48 68.13-12.43L68.13-12.43 50.48-12.43Q50.68-9.06 51.84-6.93 53-4.81 54.89-3.81 56.78-2.81 59.15-2.81L59.15-2.81Q61.42-2.81 63.03-3.45 64.64-4.1 66.28-5.03L66.28-5.03 66.6-5.03 67.62-2.12Q65.99-1 63.68-0.26 61.37 0.49 58.59 0.49ZM50.56-15.31L50.56-15.31 64.55-15.31Q64.5-19.29 62.97-21.5 61.45-23.71 58.27-23.71L58.27-23.71Q55.07-23.71 52.99-21.45 50.9-19.19 50.56-15.31Z" opacity="1" transform="matrix(1,0,0,1,0,0)" fill="white" class="wordmark-text-0" id="SvgjsPath2254"></path></svg></g></svg></g></svg></g></svg></g><g transform="matrix(1,0,0,1,450.4247233500558,24.667210654899947)"><svg viewBox="0 0 183.32352 183.2378153853992" height="183.2378153853992" width="183.32352"><g><svg xmlns="http://www.w3.org/2000/svg" xmlns:xlink="http://www.w3.org/1999/xlink" version="1.1" x="0" y="0" viewBox="0.7607695154586737 0.7749999999999999 30.43923048454133 30.424999999999997" enable-background="new 0 0 32 32" xml:space="preserve" height="183.2378153853992" width="183.32352" class="icon-icon-0" data-fill-palette-color="accent" id="SvgjsSvg2253"><g fill="black"><g fill="black"><path fill="black" d="M1.5 31.2c-0.2 0-0.4-0.1-0.5-0.2-0.2-0.2-0.3-0.4-0.2-0.7l3.7-19.1c0.1-0.3 0.3-0.6 0.6-0.6l9.6-1.3c0.2 0 0.5 0 0.6 0.2l7.2 7.2c0.2 0.2 0.2 0.4 0.2 0.6l-1.3 9.6c0 0.3-0.3 0.6-0.6 0.6L1.6 31.2H1.5zM5.8 12.1L2.4 29.6l17.5-3.4 1.2-8.7-6.7-6.7L5.8 12.1z"></path></g><g fill="black"><rect x="5.2" y="19.8" transform="matrix(-0.7071 -0.7071 0.7071 -0.7071 -8.3465 48.7211)" fill="black" width="1.5" height="12.6"></rect></g><g fill="black"><path fill="black" d="M12 23.1c-0.8 0-1.6-0.3-2.2-0.9-0.6-0.6-0.9-1.3-0.9-2.2 0-0.8 0.3-1.6 0.9-2.2 1.2-1.2 3.2-1.2 4.3 0 1.2 1.2 1.2 3.1 0 4.3C13.6 22.8 12.8 23.1 12 23.1zM12 18.4c-0.4 0-0.8 0.2-1.1 0.5s-0.5 0.7-0.5 1.1 0.2 0.8 0.5 1.1c0.6 0.6 1.6 0.6 2.2 0 0.6-0.6 0.6-1.6 0-2.2C12.8 18.6 12.4 18.4 12 18.4z"></path></g><g fill="black"><path fill="black" d="M23.8 18.7c-0.9 0-1.8-0.4-2.4-1l-7.1-7.1c-1.3-1.3-1.3-3.5 0-4.8L19.1 1c0.3-0.3 0.8-0.3 1.1 0L31 11.8c0.1 0.1 0.2 0.3 0.2 0.5s-0.1 0.4-0.2 0.5l-4.9 4.9C25.5 18.4 24.7 18.7 23.8 18.7zM19.7 2.6l-4.3 4.3c-0.7 0.7-0.7 2 0 2.7l7.1 7.1c0.7 0.7 2 0.7 2.7 0l4.3-4.3L19.7 2.6z"></path></g></g></svg></g></svg></g></svg></g><defs><mask></mask></defs></svg><rect width="395.52" height="145.14749669590074" fill="black" stroke="none" visibility="hidden"></rect></g></mask><linearGradient x1="0" x2="1" y1="0.578" y2="0.595" id="56aedebb-2f75-4b2f-be7f-6d33ee93b93c"><stop stop-color="#6ee2f5" offset="0"></stop><stop stop-color="#6454f0" offset="1"></stop></linearGradient><rect width="395.52" height="145.14749669590074" fill="url(#56aedebb-2f75-4b2f-be7f-6d33ee93b93c)" mask="url(#95038443-d8fd-4479-918c-c53d7a3d6b91)" data-fill-palette-color="primary"></rect><mask id="b0c55b70-3fc3-4936-8ada-3889c3662278"><g id="SvgjsG2276"><svg viewBox="0 0 395.52 145.14749669590074" height="145.14749669590074" width="395.52"><g><svg viewBox="0 0 633.7482433500559 232.57223669519908" height="145.14749669590074" width="395.52"><g><svg viewBox="0 0 395.52 232.57223669519908" height="232.57223669519908" width="395.52"><g id="SvgjsG2275"><svg viewBox="0 0 395.52 232.57223669519908" height="232.57223669519908" width="395.52" id="SvgjsSvg2274"><g><svg viewBox="0 0 395.52 232.57223669519908" height="232.57223669519908" width="395.52"><g transform="matrix(1,0,0,1,0,0)"><svg width="395.52" viewBox="2.76 -38.09 65.58999999999999 38.580000000000005" height="232.57223669519908" data-palette-color="url(#56aedebb-2f75-4b2f-be7f-6d33ee93b93c)"></svg></g></svg></g></svg></g></svg></g><g transform="matrix(1,0,0,1,450.4247233500558,24.667210654899947)"><svg viewBox="0 0 183.32352 183.2378153853992" height="183.2378153853992" width="183.32352"><g><svg xmlns="http://www.w3.org/2000/svg" xmlns:xlink="http://www.w3.org/1999/xlink" version="1.1" x="0" y="0" viewBox="0.7607695154586737 0.7749999999999999 30.43923048454133 30.424999999999997" enable-background="new 0 0 32 32" xml:space="preserve" height="183.2378153853992" width="183.32352" class="icon-icon-0" data-fill-palette-color="accent" id="SvgjsSvg2273"><g fill="white"><g fill="white"><path fill="white" d="M1.5 31.2c-0.2 0-0.4-0.1-0.5-0.2-0.2-0.2-0.3-0.4-0.2-0.7l3.7-19.1c0.1-0.3 0.3-0.6 0.6-0.6l9.6-1.3c0.2 0 0.5 0 0.6 0.2l7.2 7.2c0.2 0.2 0.2 0.4 0.2 0.6l-1.3 9.6c0 0.3-0.3 0.6-0.6 0.6L1.6 31.2H1.5zM5.8 12.1L2.4 29.6l17.5-3.4 1.2-8.7-6.7-6.7L5.8 12.1z"></path></g><g fill="white"><rect x="5.2" y="19.8" transform="matrix(-0.7071 -0.7071 0.7071 -0.7071 -8.3465 48.7211)" fill="white" width="1.5" height="12.6"></rect></g><g fill="white"><path fill="white" d="M12 23.1c-0.8 0-1.6-0.3-2.2-0.9-0.6-0.6-0.9-1.3-0.9-2.2 0-0.8 0.3-1.6 0.9-2.2 1.2-1.2 3.2-1.2 4.3 0 1.2 1.2 1.2 3.1 0 4.3C13.6 22.8 12.8 23.1 12 23.1zM12 18.4c-0.4 0-0.8 0.2-1.1 0.5s-0.5 0.7-0.5 1.1 0.2 0.8 0.5 1.1c0.6 0.6 1.6 0.6 2.2 0 0.6-0.6 0.6-1.6 0-2.2C12.8 18.6 12.4 18.4 12 18.4z"></path></g><g fill="white"><path fill="white" d="M23.8 18.7c-0.9 0-1.8-0.4-2.4-1l-7.1-7.1c-1.3-1.3-1.3-3.5 0-4.8L19.1 1c0.3-0.3 0.8-0.3 1.1 0L31 11.8c0.1 0.1 0.2 0.3 0.2 0.5s-0.1 0.4-0.2 0.5l-4.9 4.9C25.5 18.4 24.7 18.7 23.8 18.7zM19.7 2.6l-4.3 4.3c-0.7 0.7-0.7 2 0 2.7l7.1 7.1c0.7 0.7 2 0.7 2.7 0l4.3-4.3L19.7 2.6z"></path></g></g></svg></g></svg></g></svg></g><defs><mask></mask></defs><mask><g id="SvgjsG2272"><svg viewBox="0 0 395.52 145.14749669590074" height="145.14749669590074" width="395.52"><g><svg viewBox="0 0 633.7482433500559 232.57223669519908" height="145.14749669590074" width="395.52"><g><svg viewBox="0 0 395.52 232.57223669519908" height="232.57223669519908" width="395.52"><g id="SvgjsG2271"><svg viewBox="0 0 395.52 232.57223669519908" height="232.57223669519908" width="395.52" id="SvgjsSvg2270"><g><svg viewBox="0 0 395.52 232.57223669519908" height="232.57223669519908" width="395.52"><g transform="matrix(1,0,0,1,0,0)"><svg width="395.52" viewBox="2.76 -38.09 65.58999999999999 38.580000000000005" height="232.57223669519908" data-palette-color="url(#56aedebb-2f75-4b2f-be7f-6d33ee93b93c)"><path d="M11.28 0.49L11.28 0.49Q7.5 0.49 5.13-1.42 2.76-3.32 2.76-7.18L2.76-7.18Q2.76-8.94 3.38-10.3 4-11.67 5.27-12.61 6.54-13.55 8.54-14.04 10.55-14.53 13.28-14.53L13.28-14.53 19.24-14.53 19.24-17.58Q19.24-20.78 17.8-22.2 16.36-23.63 13.45-23.63L13.45-23.63Q11.57-23.63 9.22-23.03 6.86-22.44 4.98-21.14L4.98-21.14 3.69-24.51Q5.03-25.37 6.65-25.92 8.28-26.46 10.05-26.73 11.82-27 13.57-27L13.57-27Q16.55-27 18.82-26.05 21.09-25.1 22.38-22.95 23.66-20.8 23.66-17.21L23.66-17.21 23.66 0 19.95 0 19.63-3.25Q18.58-2 17.33-1.17 16.09-0.34 14.59 0.07 13.09 0.49 11.28 0.49ZM11.96-2.66L11.96-2.66Q14.31-2.66 16.16-3.64 18.02-4.61 19.24-6.18L19.24-6.18 19.24-11.72 14.09-11.72Q11.4-11.72 9.84-11.21 8.28-10.69 7.63-9.68 6.98-8.67 6.98-7.13L6.98-7.13Q6.98-4.64 8.44-3.65 9.89-2.66 11.96-2.66ZM38.89 0.2L38.89 0.2Q36.55 0.2 34.95-0.4 33.35-1 32.53-2.67 31.71-4.35 31.71-7.57L31.71-7.57 31.71-37.6 36.13-38.09 36.13-7.62Q36.13-5.64 36.37-4.74 36.62-3.83 37.36-3.54 38.11-3.25 39.57-3.13L39.57-3.13Q39.96-3.1 40.33-3.08 40.7-3.05 41.09-3.03L41.09-3.03 40.74 0.2Q40.28 0.2 39.82 0.2 39.35 0.2 38.89 0.2ZM58.59 0.49L58.59 0.49Q55.02 0.49 52.16-1.15 49.29-2.78 47.61-5.85 45.94-8.91 45.94-13.13L45.94-13.13Q45.94-17.53 47.58-20.63 49.21-23.73 51.97-25.37 54.73-27 58.05-27L58.05-27Q61.3-27 63.59-25.56 65.89-24.12 67.12-21.46 68.35-18.8 68.35-15.14L68.35-15.14Q68.35-14.77 68.29-14.14 68.23-13.5 68.18-12.99 68.13-12.48 68.13-12.43L68.13-12.43 50.48-12.43Q50.68-9.06 51.84-6.93 53-4.81 54.89-3.81 56.78-2.81 59.15-2.81L59.15-2.81Q61.42-2.81 63.03-3.45 64.64-4.1 66.28-5.03L66.28-5.03 66.6-5.03 67.62-2.12Q65.99-1 63.68-0.26 61.37 0.49 58.59 0.49ZM50.56-15.31L50.56-15.31 64.55-15.31Q64.5-19.29 62.97-21.5 61.45-23.71 58.27-23.71L58.27-23.71Q55.07-23.71 52.99-21.45 50.9-19.19 50.56-15.31Z" opacity="1" transform="matrix(1,0,0,1,0,0)" fill="black" class="wordmark-text-0" id="SvgjsPath2269"></path></svg></g></svg></g></svg></g></svg></g><g transform="matrix(1,0,0,1,450.4247233500558,24.667210654899947)"><svg viewBox="0 0 183.32352 183.2378153853992" height="183.2378153853992" width="183.32352"><g><svg xmlns="http://www.w3.org/2000/svg" xmlns:xlink="http://www.w3.org/1999/xlink" version="1.1" x="0" y="0" viewBox="0.7607695154586737 0.7749999999999999 30.43923048454133 30.424999999999997" enable-background="new 0 0 32 32" xml:space="preserve" height="183.2378153853992" width="183.32352" class="icon-icon-0" data-fill-palette-color="accent" id="SvgjsSvg2268"><g fill="black"><g fill="black"><path fill="black" d="M1.5 31.2c-0.2 0-0.4-0.1-0.5-0.2-0.2-0.2-0.3-0.4-0.2-0.7l3.7-19.1c0.1-0.3 0.3-0.6 0.6-0.6l9.6-1.3c0.2 0 0.5 0 0.6 0.2l7.2 7.2c0.2 0.2 0.2 0.4 0.2 0.6l-1.3 9.6c0 0.3-0.3 0.6-0.6 0.6L1.6 31.2H1.5zM5.8 12.1L2.4 29.6l17.5-3.4 1.2-8.7-6.7-6.7L5.8 12.1z"></path></g><g fill="black"><rect x="5.2" y="19.8" transform="matrix(-0.7071 -0.7071 0.7071 -0.7071 -8.3465 48.7211)" fill="black" width="1.5" height="12.6"></rect></g><g fill="black"><path fill="black" d="M12 23.1c-0.8 0-1.6-0.3-2.2-0.9-0.6-0.6-0.9-1.3-0.9-2.2 0-0.8 0.3-1.6 0.9-2.2 1.2-1.2 3.2-1.2 4.3 0 1.2 1.2 1.2 3.1 0 4.3C13.6 22.8 12.8 23.1 12 23.1zM12 18.4c-0.4 0-0.8 0.2-1.1 0.5s-0.5 0.7-0.5 1.1 0.2 0.8 0.5 1.1c0.6 0.6 1.6 0.6 2.2 0 0.6-0.6 0.6-1.6 0-2.2C12.8 18.6 12.4 18.4 12 18.4z"></path></g><g fill="black"><path fill="black" d="M23.8 18.7c-0.9 0-1.8-0.4-2.4-1l-7.1-7.1c-1.3-1.3-1.3-3.5 0-4.8L19.1 1c0.3-0.3 0.8-0.3 1.1 0L31 11.8c0.1 0.1 0.2 0.3 0.2 0.5s-0.1 0.4-0.2 0.5l-4.9 4.9C25.5 18.4 24.7 18.7 23.8 18.7zM19.7 2.6l-4.3 4.3c-0.7 0.7-0.7 2 0 2.7l7.1 7.1c0.7 0.7 2 0.7 2.7 0l4.3-4.3L19.7 2.6z"></path></g></g></svg></g></svg></g></svg></g><defs><mask></mask></defs></svg><rect width="395.52" height="145.14749669590074" fill="black" stroke="none" visibility="hidden"></rect></g></mask></svg><rect width="395.52" height="145.14749669590074" fill="black" stroke="none" visibility="hidden"></rect></g></mask><linearGradient x1="0" x2="1" y1="0.578" y2="0.595" id="5a2f487f-15db-4df3-9812-32a0b505ca01"><stop stop-color="#6ee2f5" offset="0"></stop><stop stop-color="#6454f0" offset="1"></stop></linearGradient><rect width="395.52" height="145.14749669590074" fill="url(#5a2f487f-15db-4df3-9812-32a0b505ca01)" mask="url(#b0c55b70-3fc3-4936-8ada-3889c3662278)" data-fill-palette-color="accent"></rect></svg><rect width="395.52" height="145.14749669590074" fill="none" stroke="none" visibility="hidden"></rect></g></svg></g></svg>